# xmcd
#
# Track frame offsets:
#	150
#	31994
#	43414
#	59013
#	77460
#	100370
#	127269
#	142315
#	167590
#	192264
#	202508
#	222356
#	242079
#	252980
#	269411
#	284463
#	298044
#
# Disc length: 4113
#
# Revision: 3
# Processed by: cddbd v1.5.1PL0 Copyright (c) Steve Scherf et al.
# Submitted via: EZCDDA 4.3.2
# Normalized: r2:TDELIM( - )
#
DISCID=11100f11
DTITLE=mississippi fred mcdowell - louise
DYEAR=1900
DGENRE=
TTITLE0=Mississippi Fred Mcdowell - Louise
TTITLE1=Mississippi Fred Mcdowell - Mama Dont Allow
TTITLE2=Mississippi Fred Mcdowell - Milk Cow Blues
TTITLE3=Mississippi Fred Mcdowell - Red Cross Store
TTITLE4=Mississippi Fred Mcdowell - Some Day Baby
TTITLE5=Mississippi Fred Mcdowell - Some Sweet Day
TTITLE6=Mississippi Fred Mcdowell - Soon One Mornin'
TTITLE7=Mississippi Fred Mcdowell - The Sun Rose This Morning
TTITLE8=Mississippi Fred Mcdowell - The Train I Ride
TTITLE9=Mississippi Fred Mcdowell - Trouble everywhere i go
TTITLE10=Mississippi Fred Mcdowell - Unknown Blues
TTITLE11=Mississippi Fred Mcdowell - What's A Matter
TTITLE12=Mississippi Fred Mcdowell - When I Lay My Burden Down
TTITLE13=Mississippi Fred Mcdowell - Write Me A Few Lines
TTITLE14=Mississippi Fred Mcdowell - You  Ain't Gonna Worry My Life Anymore
TTITLE15=Mississippi Fred Mcdowell - You Got To Move
TTITLE16=Mississippi Fred Mcdowell with Jo ann kelly - glory hall
EXTD=
EXTT0=
EXTT1=
EXTT2=
EXTT3=
EXTT4=
EXTT5=
EXTT6=
EXTT7=
EXTT8=
EXTT9=
EXTT10=
EXTT11=
EXTT12=
EXTT13=
EXTT14=
EXTT15=
EXTT16=
PLAYORDER=
